<mxfile host="app.diagrams.net" modified="2024-05-22T16:28:52.858Z" agent="Mozilla/5.0 (Windows NT 10.0; Win64; x64) AppleWebKit/537.36 (KHTML, like Gecko) Chrome/125.0.0.0 Safari/537.36" etag="NZHHuBZ4KxoiPM_1LIzc" version="24.4.6" type="github">
  <diagram id="R2lEEEUBdFMjLlhIrx00" name="Page-1">
    <mxGraphModel dx="4370" dy="2972" grid="1" gridSize="10" guides="1" tooltips="1" connect="1" arrows="1" fold="1" page="1" pageScale="1" pageWidth="850" pageHeight="1100" math="0" shadow="0" extFonts="Permanent Marker^https://fonts.googleapis.com/css?family=Permanent+Marker">
      <root>
        <mxCell id="0" />
        <mxCell id="1" parent="0" />
        <mxCell id="koypFPOMvJZ9m-VjRx7N-19" style="edgeStyle=orthogonalEdgeStyle;rounded=0;orthogonalLoop=1;jettySize=auto;html=1;exitX=0.5;exitY=1;exitDx=0;exitDy=0;" edge="1" parent="1" source="koypFPOMvJZ9m-VjRx7N-7" target="koypFPOMvJZ9m-VjRx7N-16">
          <mxGeometry relative="1" as="geometry" />
        </mxCell>
        <mxCell id="koypFPOMvJZ9m-VjRx7N-20" style="edgeStyle=orthogonalEdgeStyle;rounded=0;orthogonalLoop=1;jettySize=auto;html=1;exitX=0.25;exitY=1;exitDx=0;exitDy=0;entryX=0.5;entryY=0;entryDx=0;entryDy=0;" edge="1" parent="1" source="koypFPOMvJZ9m-VjRx7N-7" target="koypFPOMvJZ9m-VjRx7N-13">
          <mxGeometry relative="1" as="geometry" />
        </mxCell>
        <mxCell id="koypFPOMvJZ9m-VjRx7N-21" style="edgeStyle=orthogonalEdgeStyle;rounded=0;orthogonalLoop=1;jettySize=auto;html=1;exitX=0.75;exitY=1;exitDx=0;exitDy=0;entryX=0.5;entryY=0;entryDx=0;entryDy=0;" edge="1" parent="1" source="koypFPOMvJZ9m-VjRx7N-7" target="koypFPOMvJZ9m-VjRx7N-14">
          <mxGeometry relative="1" as="geometry" />
        </mxCell>
        <mxCell id="koypFPOMvJZ9m-VjRx7N-22" style="edgeStyle=orthogonalEdgeStyle;rounded=0;orthogonalLoop=1;jettySize=auto;html=1;exitX=0;exitY=1;exitDx=0;exitDy=0;" edge="1" parent="1" source="koypFPOMvJZ9m-VjRx7N-7" target="koypFPOMvJZ9m-VjRx7N-15">
          <mxGeometry relative="1" as="geometry" />
        </mxCell>
        <mxCell id="koypFPOMvJZ9m-VjRx7N-23" style="edgeStyle=orthogonalEdgeStyle;rounded=0;orthogonalLoop=1;jettySize=auto;html=1;exitX=1;exitY=1;exitDx=0;exitDy=0;entryX=0.5;entryY=0;entryDx=0;entryDy=0;" edge="1" parent="1" source="koypFPOMvJZ9m-VjRx7N-7" target="koypFPOMvJZ9m-VjRx7N-17">
          <mxGeometry relative="1" as="geometry" />
        </mxCell>
        <mxCell id="koypFPOMvJZ9m-VjRx7N-7" value="Products" style="html=1;overflow=block;blockSpacing=1;whiteSpace=wrap;fontSize=16.7;spacing=9;rounded=1;absoluteArcSize=1;arcSize=9;strokeWidth=NaN;lucidId=O1WxCh8SRQc-;fillColor=#9AC7BF;" vertex="1" parent="1">
          <mxGeometry x="-140" y="440" width="120" height="90" as="geometry" />
        </mxCell>
        <mxCell id="koypFPOMvJZ9m-VjRx7N-13" value="&lt;u&gt;ProductID&lt;/u&gt;" style="ellipse;whiteSpace=wrap;html=1;fillColor=#9AC7BF;" vertex="1" parent="1">
          <mxGeometry x="-207" y="653.5" width="93" height="60" as="geometry" />
        </mxCell>
        <mxCell id="koypFPOMvJZ9m-VjRx7N-14" value="ProductName" style="ellipse;whiteSpace=wrap;html=1;fillColor=#9AC7BF;" vertex="1" parent="1">
          <mxGeometry x="-30" y="650" width="100" height="60" as="geometry" />
        </mxCell>
        <mxCell id="koypFPOMvJZ9m-VjRx7N-15" value="Price" style="ellipse;whiteSpace=wrap;html=1;fillColor=#9AC7BF;" vertex="1" parent="1">
          <mxGeometry x="-286.5" y="598.5" width="93" height="60" as="geometry" />
        </mxCell>
        <mxCell id="koypFPOMvJZ9m-VjRx7N-16" value="Picture" style="ellipse;whiteSpace=wrap;html=1;fillColor=#9AC7BF;" vertex="1" parent="1">
          <mxGeometry x="-130" y="593.5" width="100" height="60" as="geometry" />
        </mxCell>
        <mxCell id="koypFPOMvJZ9m-VjRx7N-17" value="Description" style="ellipse;whiteSpace=wrap;html=1;fillColor=#9AC7BF;" vertex="1" parent="1">
          <mxGeometry x="56" y="598.5" width="86.5" height="58.5" as="geometry" />
        </mxCell>
        <mxCell id="koypFPOMvJZ9m-VjRx7N-49" style="edgeStyle=orthogonalEdgeStyle;rounded=0;orthogonalLoop=1;jettySize=auto;html=1;exitX=0;exitY=0;exitDx=0;exitDy=0;entryX=0.5;entryY=1;entryDx=0;entryDy=0;" edge="1" parent="1" source="koypFPOMvJZ9m-VjRx7N-34" target="koypFPOMvJZ9m-VjRx7N-38">
          <mxGeometry relative="1" as="geometry" />
        </mxCell>
        <mxCell id="koypFPOMvJZ9m-VjRx7N-50" style="edgeStyle=orthogonalEdgeStyle;rounded=0;orthogonalLoop=1;jettySize=auto;html=1;exitX=0.25;exitY=0;exitDx=0;exitDy=0;entryX=0.5;entryY=1;entryDx=0;entryDy=0;" edge="1" parent="1" source="koypFPOMvJZ9m-VjRx7N-34" target="koypFPOMvJZ9m-VjRx7N-39">
          <mxGeometry relative="1" as="geometry" />
        </mxCell>
        <mxCell id="koypFPOMvJZ9m-VjRx7N-53" style="edgeStyle=orthogonalEdgeStyle;rounded=0;orthogonalLoop=1;jettySize=auto;html=1;exitX=0.25;exitY=1;exitDx=0;exitDy=0;entryX=0.5;entryY=0;entryDx=0;entryDy=0;" edge="1" parent="1" source="koypFPOMvJZ9m-VjRx7N-34" target="koypFPOMvJZ9m-VjRx7N-42">
          <mxGeometry relative="1" as="geometry" />
        </mxCell>
        <mxCell id="koypFPOMvJZ9m-VjRx7N-54" style="edgeStyle=orthogonalEdgeStyle;rounded=0;orthogonalLoop=1;jettySize=auto;html=1;exitX=0.75;exitY=1;exitDx=0;exitDy=0;" edge="1" parent="1" source="koypFPOMvJZ9m-VjRx7N-34" target="koypFPOMvJZ9m-VjRx7N-41">
          <mxGeometry relative="1" as="geometry" />
        </mxCell>
        <mxCell id="koypFPOMvJZ9m-VjRx7N-55" style="edgeStyle=orthogonalEdgeStyle;rounded=0;orthogonalLoop=1;jettySize=auto;html=1;exitX=0.5;exitY=1;exitDx=0;exitDy=0;entryX=0.5;entryY=0;entryDx=0;entryDy=0;" edge="1" parent="1" source="koypFPOMvJZ9m-VjRx7N-34" target="koypFPOMvJZ9m-VjRx7N-43">
          <mxGeometry relative="1" as="geometry" />
        </mxCell>
        <mxCell id="koypFPOMvJZ9m-VjRx7N-34" value="Personal Info" style="html=1;overflow=block;blockSpacing=1;whiteSpace=wrap;fontSize=16.7;spacing=9;rounded=1;absoluteArcSize=1;arcSize=9;strokeWidth=NaN;lucidId=O1Wxrj9NdLNg;fillColor=#FFFF66;" vertex="1" parent="1">
          <mxGeometry x="180" y="-90" width="120" height="90" as="geometry" />
        </mxCell>
        <mxCell id="koypFPOMvJZ9m-VjRx7N-38" value="&lt;u&gt;Personal_ID&lt;/u&gt;" style="ellipse;whiteSpace=wrap;html=1;fillColor=#FFFF66;" vertex="1" parent="1">
          <mxGeometry x="-27" y="-210" width="97" height="67" as="geometry" />
        </mxCell>
        <mxCell id="koypFPOMvJZ9m-VjRx7N-39" value="Phone" style="ellipse;whiteSpace=wrap;html=1;fillColor=#FFFF66;" vertex="1" parent="1">
          <mxGeometry x="100" y="-240" width="107" height="67" as="geometry" />
        </mxCell>
        <mxCell id="koypFPOMvJZ9m-VjRx7N-40" value="Email" style="ellipse;whiteSpace=wrap;html=1;fillColor=#FFFF66;" vertex="1" parent="1">
          <mxGeometry x="224" y="-240" width="107" height="67" as="geometry" />
        </mxCell>
        <mxCell id="koypFPOMvJZ9m-VjRx7N-41" value="Address" style="ellipse;whiteSpace=wrap;html=1;fillColor=#FFFF66;" vertex="1" parent="1">
          <mxGeometry x="315" y="40" width="110" height="70" as="geometry" />
        </mxCell>
        <mxCell id="koypFPOMvJZ9m-VjRx7N-42" value="Postal Code" style="ellipse;whiteSpace=wrap;html=1;fillColor=#FFFF66;" vertex="1" parent="1">
          <mxGeometry x="56" y="50" width="110" height="70" as="geometry" />
        </mxCell>
        <mxCell id="koypFPOMvJZ9m-VjRx7N-43" value="City" style="ellipse;whiteSpace=wrap;html=1;fillColor=#FFFF66;" vertex="1" parent="1">
          <mxGeometry x="186.5" y="60" width="107" height="70" as="geometry" />
        </mxCell>
        <mxCell id="koypFPOMvJZ9m-VjRx7N-47" style="edgeStyle=orthogonalEdgeStyle;rounded=0;orthogonalLoop=1;jettySize=auto;html=1;exitX=0.5;exitY=0;exitDx=0;exitDy=0;entryX=0.5;entryY=1;entryDx=0;entryDy=0;" edge="1" parent="1" source="koypFPOMvJZ9m-VjRx7N-44" target="koypFPOMvJZ9m-VjRx7N-46">
          <mxGeometry relative="1" as="geometry" />
        </mxCell>
        <mxCell id="koypFPOMvJZ9m-VjRx7N-48" style="edgeStyle=orthogonalEdgeStyle;rounded=0;orthogonalLoop=1;jettySize=auto;html=1;exitX=1;exitY=0;exitDx=0;exitDy=0;entryX=0.5;entryY=1;entryDx=0;entryDy=0;" edge="1" parent="1" source="koypFPOMvJZ9m-VjRx7N-44" target="koypFPOMvJZ9m-VjRx7N-45">
          <mxGeometry relative="1" as="geometry" />
        </mxCell>
        <mxCell id="koypFPOMvJZ9m-VjRx7N-44" value="Name" style="ellipse;whiteSpace=wrap;html=1;fillColor=#FFFF66;" vertex="1" parent="1">
          <mxGeometry x="310" y="-182" width="100" height="73.5" as="geometry" />
        </mxCell>
        <mxCell id="koypFPOMvJZ9m-VjRx7N-45" value="LName" style="ellipse;whiteSpace=wrap;html=1;fillColor=#FFFF66;" vertex="1" parent="1">
          <mxGeometry x="540" y="-243" width="100" height="70" as="geometry" />
        </mxCell>
        <mxCell id="koypFPOMvJZ9m-VjRx7N-46" value="LName" style="ellipse;whiteSpace=wrap;html=1;fillColor=#FFFF66;" vertex="1" parent="1">
          <mxGeometry x="425" y="-280" width="103" height="70" as="geometry" />
        </mxCell>
        <mxCell id="koypFPOMvJZ9m-VjRx7N-51" style="edgeStyle=orthogonalEdgeStyle;rounded=0;orthogonalLoop=1;jettySize=auto;html=1;exitX=0.5;exitY=0;exitDx=0;exitDy=0;entryX=0.28;entryY=0.94;entryDx=0;entryDy=0;entryPerimeter=0;" edge="1" parent="1" source="koypFPOMvJZ9m-VjRx7N-34" target="koypFPOMvJZ9m-VjRx7N-40">
          <mxGeometry relative="1" as="geometry" />
        </mxCell>
        <mxCell id="koypFPOMvJZ9m-VjRx7N-52" style="edgeStyle=orthogonalEdgeStyle;rounded=0;orthogonalLoop=1;jettySize=auto;html=1;exitX=0.75;exitY=0;exitDx=0;exitDy=0;entryX=0.588;entryY=1.034;entryDx=0;entryDy=0;entryPerimeter=0;" edge="1" parent="1" source="koypFPOMvJZ9m-VjRx7N-34" target="koypFPOMvJZ9m-VjRx7N-44">
          <mxGeometry relative="1" as="geometry" />
        </mxCell>
        <mxCell id="koypFPOMvJZ9m-VjRx7N-174" style="edgeStyle=orthogonalEdgeStyle;rounded=0;orthogonalLoop=1;jettySize=auto;html=1;exitX=0.5;exitY=0;exitDx=0;exitDy=0;entryX=0.5;entryY=1;entryDx=0;entryDy=0;" edge="1" parent="1" source="koypFPOMvJZ9m-VjRx7N-59" target="koypFPOMvJZ9m-VjRx7N-61">
          <mxGeometry relative="1" as="geometry" />
        </mxCell>
        <mxCell id="koypFPOMvJZ9m-VjRx7N-175" style="edgeStyle=orthogonalEdgeStyle;rounded=0;orthogonalLoop=1;jettySize=auto;html=1;exitX=0.25;exitY=0;exitDx=0;exitDy=0;entryX=0.5;entryY=1;entryDx=0;entryDy=0;" edge="1" parent="1" source="koypFPOMvJZ9m-VjRx7N-59" target="koypFPOMvJZ9m-VjRx7N-60">
          <mxGeometry relative="1" as="geometry" />
        </mxCell>
        <mxCell id="koypFPOMvJZ9m-VjRx7N-176" style="edgeStyle=orthogonalEdgeStyle;rounded=0;orthogonalLoop=1;jettySize=auto;html=1;exitX=0.75;exitY=0;exitDx=0;exitDy=0;entryX=0.5;entryY=1;entryDx=0;entryDy=0;" edge="1" parent="1" source="koypFPOMvJZ9m-VjRx7N-59" target="koypFPOMvJZ9m-VjRx7N-62">
          <mxGeometry relative="1" as="geometry" />
        </mxCell>
        <mxCell id="koypFPOMvJZ9m-VjRx7N-59" value="Customers" style="html=1;overflow=block;blockSpacing=1;whiteSpace=wrap;fontSize=16.7;spacing=9;rounded=1;absoluteArcSize=1;arcSize=9;strokeWidth=NaN;lucidId=O1Wx00iIs8_n;fillColor=#66FFFF;" vertex="1" parent="1">
          <mxGeometry x="-380" y="-54.5" width="120" height="90" as="geometry" />
        </mxCell>
        <mxCell id="koypFPOMvJZ9m-VjRx7N-60" value="&lt;u&gt;CustomerID&lt;/u&gt;" style="ellipse;whiteSpace=wrap;html=1;fillColor=#66FFFF;" vertex="1" parent="1">
          <mxGeometry x="-510" y="-182" width="103" height="70" as="geometry" />
        </mxCell>
        <mxCell id="koypFPOMvJZ9m-VjRx7N-61" value="Username" style="ellipse;whiteSpace=wrap;html=1;fillColor=#66FFFF;" vertex="1" parent="1">
          <mxGeometry x="-375" y="-210" width="110" height="70" as="geometry" />
        </mxCell>
        <mxCell id="koypFPOMvJZ9m-VjRx7N-62" value="Password" style="ellipse;whiteSpace=wrap;html=1;fillColor=#66FFFF;" vertex="1" parent="1">
          <mxGeometry x="-240" y="-187" width="110" height="75" as="geometry" />
        </mxCell>
        <mxCell id="koypFPOMvJZ9m-VjRx7N-66" style="edgeStyle=orthogonalEdgeStyle;rounded=0;orthogonalLoop=1;jettySize=auto;html=1;exitX=0;exitY=0.5;exitDx=0;exitDy=0;entryX=1;entryY=0.5;entryDx=0;entryDy=0;fillColor=#B5739D;" edge="1" parent="1" source="koypFPOMvJZ9m-VjRx7N-69" target="koypFPOMvJZ9m-VjRx7N-74">
          <mxGeometry relative="1" as="geometry" />
        </mxCell>
        <mxCell id="koypFPOMvJZ9m-VjRx7N-67" style="edgeStyle=orthogonalEdgeStyle;rounded=0;orthogonalLoop=1;jettySize=auto;html=1;exitX=0;exitY=0.25;exitDx=0;exitDy=0;entryX=1;entryY=0.5;entryDx=0;entryDy=0;" edge="1" parent="1" source="koypFPOMvJZ9m-VjRx7N-69" target="koypFPOMvJZ9m-VjRx7N-77">
          <mxGeometry relative="1" as="geometry" />
        </mxCell>
        <mxCell id="koypFPOMvJZ9m-VjRx7N-68" style="edgeStyle=orthogonalEdgeStyle;rounded=0;orthogonalLoop=1;jettySize=auto;html=1;exitX=0;exitY=0.75;exitDx=0;exitDy=0;entryX=1;entryY=0.5;entryDx=0;entryDy=0;" edge="1" parent="1" source="koypFPOMvJZ9m-VjRx7N-69" target="koypFPOMvJZ9m-VjRx7N-75">
          <mxGeometry relative="1" as="geometry" />
        </mxCell>
        <mxCell id="koypFPOMvJZ9m-VjRx7N-69" value="Orders" style="html=1;overflow=block;blockSpacing=1;whiteSpace=wrap;fontSize=16.7;spacing=9;rounded=1;absoluteArcSize=1;arcSize=9;strokeWidth=NaN;lucidId=O1WxsksWZlcZ;fillColor=#B5739D;" vertex="1" parent="1">
          <mxGeometry x="-620" y="180" width="120" height="90" as="geometry" />
        </mxCell>
        <mxCell id="koypFPOMvJZ9m-VjRx7N-74" value="&lt;u&gt;OrderID&lt;/u&gt;" style="ellipse;whiteSpace=wrap;html=1;fillColor=#B5739D;" vertex="1" parent="1">
          <mxGeometry x="-830" y="190" width="120" height="80" as="geometry" />
        </mxCell>
        <mxCell id="koypFPOMvJZ9m-VjRx7N-75" value="OrderDate" style="ellipse;whiteSpace=wrap;html=1;fillColor=#B5739D;" vertex="1" parent="1">
          <mxGeometry x="-820" y="300" width="120" height="80" as="geometry" />
        </mxCell>
        <mxCell id="koypFPOMvJZ9m-VjRx7N-124" style="edgeStyle=orthogonalEdgeStyle;rounded=0;orthogonalLoop=1;jettySize=auto;html=1;exitX=0;exitY=0;exitDx=0;exitDy=0;entryX=0.5;entryY=1;entryDx=0;entryDy=0;" edge="1" parent="1" source="koypFPOMvJZ9m-VjRx7N-77" target="koypFPOMvJZ9m-VjRx7N-78">
          <mxGeometry relative="1" as="geometry" />
        </mxCell>
        <mxCell id="koypFPOMvJZ9m-VjRx7N-125" style="edgeStyle=orthogonalEdgeStyle;rounded=0;orthogonalLoop=1;jettySize=auto;html=1;exitX=1;exitY=0;exitDx=0;exitDy=0;entryX=0.5;entryY=1;entryDx=0;entryDy=0;" edge="1" parent="1" source="koypFPOMvJZ9m-VjRx7N-77" target="koypFPOMvJZ9m-VjRx7N-79">
          <mxGeometry relative="1" as="geometry" />
        </mxCell>
        <mxCell id="koypFPOMvJZ9m-VjRx7N-77" value="&lt;font style=&quot;font-size: 18px;&quot;&gt;Payment&lt;/font&gt;" style="ellipse;whiteSpace=wrap;html=1;fillColor=#B5739D;" vertex="1" parent="1">
          <mxGeometry x="-830" y="100" width="120" height="80" as="geometry" />
        </mxCell>
        <mxCell id="koypFPOMvJZ9m-VjRx7N-78" value="&lt;font style=&quot;font-size: 18px;&quot;&gt;PaymentType&lt;/font&gt;" style="ellipse;whiteSpace=wrap;html=1;fillColor=#B5739D;" vertex="1" parent="1">
          <mxGeometry x="-850" y="-23.25" width="120" height="80" as="geometry" />
        </mxCell>
        <mxCell id="koypFPOMvJZ9m-VjRx7N-79" value="&lt;font style=&quot;font-size: 18px;&quot;&gt;PaymentDate&lt;/font&gt;" style="ellipse;whiteSpace=wrap;html=1;fillColor=#B5739D;" vertex="1" parent="1">
          <mxGeometry x="-680" y="-23.25" width="120" height="80" as="geometry" />
        </mxCell>
        <mxCell id="koypFPOMvJZ9m-VjRx7N-83" style="edgeStyle=orthogonalEdgeStyle;rounded=0;orthogonalLoop=1;jettySize=auto;html=1;exitX=1;exitY=0.25;exitDx=0;exitDy=0;entryX=0;entryY=0.5;entryDx=0;entryDy=0;fillColor=#FF9933;" edge="1" parent="1" source="koypFPOMvJZ9m-VjRx7N-86" target="koypFPOMvJZ9m-VjRx7N-88">
          <mxGeometry relative="1" as="geometry" />
        </mxCell>
        <mxCell id="koypFPOMvJZ9m-VjRx7N-84" style="edgeStyle=orthogonalEdgeStyle;rounded=0;orthogonalLoop=1;jettySize=auto;html=1;exitX=1;exitY=0.5;exitDx=0;exitDy=0;entryX=0;entryY=0.5;entryDx=0;entryDy=0;fillColor=#FF9933;" edge="1" parent="1" source="koypFPOMvJZ9m-VjRx7N-86" target="koypFPOMvJZ9m-VjRx7N-89">
          <mxGeometry relative="1" as="geometry" />
        </mxCell>
        <mxCell id="koypFPOMvJZ9m-VjRx7N-85" style="edgeStyle=orthogonalEdgeStyle;rounded=0;orthogonalLoop=1;jettySize=auto;html=1;exitX=1;exitY=0.75;exitDx=0;exitDy=0;entryX=0;entryY=0.5;entryDx=0;entryDy=0;fillColor=#FF9933;" edge="1" parent="1" source="koypFPOMvJZ9m-VjRx7N-86" target="koypFPOMvJZ9m-VjRx7N-90">
          <mxGeometry relative="1" as="geometry" />
        </mxCell>
        <mxCell id="koypFPOMvJZ9m-VjRx7N-86" value="Carts" style="html=1;overflow=block;blockSpacing=1;whiteSpace=wrap;fontSize=16.7;spacing=9;rounded=1;absoluteArcSize=1;arcSize=9;strokeWidth=NaN;lucidId=O1WxNh_-pPMl;fillColor=#FF9933;" vertex="1" parent="1">
          <mxGeometry x="-230" y="180" width="120" height="90" as="geometry" />
        </mxCell>
        <mxCell id="koypFPOMvJZ9m-VjRx7N-88" value="ProductName" style="ellipse;whiteSpace=wrap;html=1;fillColor=#FF9933;" vertex="1" parent="1">
          <mxGeometry x="-60" y="109" width="100" height="72" as="geometry" />
        </mxCell>
        <mxCell id="koypFPOMvJZ9m-VjRx7N-89" value="Quantity" style="ellipse;whiteSpace=wrap;html=1;fillColor=#FF9933;" vertex="1" parent="1">
          <mxGeometry x="-44" y="195" width="100" height="60" as="geometry" />
        </mxCell>
        <mxCell id="koypFPOMvJZ9m-VjRx7N-90" value="TotalPrice" style="ellipse;whiteSpace=wrap;html=1;fillColor=#FF9933;" vertex="1" parent="1">
          <mxGeometry x="-44" y="270" width="110" height="70" as="geometry" />
        </mxCell>
        <mxCell id="koypFPOMvJZ9m-VjRx7N-100" style="edgeStyle=orthogonalEdgeStyle;rounded=0;orthogonalLoop=1;jettySize=auto;html=1;exitX=0;exitY=0.25;exitDx=0;exitDy=0;entryX=1;entryY=0.5;entryDx=0;entryDy=0;" edge="1" parent="1" source="koypFPOMvJZ9m-VjRx7N-96" target="koypFPOMvJZ9m-VjRx7N-99">
          <mxGeometry relative="1" as="geometry" />
        </mxCell>
        <mxCell id="koypFPOMvJZ9m-VjRx7N-101" style="edgeStyle=orthogonalEdgeStyle;rounded=0;orthogonalLoop=1;jettySize=auto;html=1;exitX=0;exitY=0.5;exitDx=0;exitDy=0;entryX=1;entryY=0.5;entryDx=0;entryDy=0;" edge="1" parent="1" source="koypFPOMvJZ9m-VjRx7N-96" target="koypFPOMvJZ9m-VjRx7N-97">
          <mxGeometry relative="1" as="geometry" />
        </mxCell>
        <mxCell id="koypFPOMvJZ9m-VjRx7N-102" style="edgeStyle=orthogonalEdgeStyle;rounded=0;orthogonalLoop=1;jettySize=auto;html=1;exitX=0;exitY=0.75;exitDx=0;exitDy=0;entryX=1;entryY=0.5;entryDx=0;entryDy=0;" edge="1" parent="1" source="koypFPOMvJZ9m-VjRx7N-96" target="koypFPOMvJZ9m-VjRx7N-98">
          <mxGeometry relative="1" as="geometry" />
        </mxCell>
        <mxCell id="koypFPOMvJZ9m-VjRx7N-96" value="Order_details" style="html=1;overflow=block;blockSpacing=1;whiteSpace=wrap;fontSize=16.7;spacing=9;rounded=1;absoluteArcSize=1;arcSize=9;strokeWidth=NaN;lucidId=O1WxLpfn80ZY;fillColor=#33FF99;" vertex="1" parent="1">
          <mxGeometry x="-600" y="565" width="120" height="90" as="geometry" />
        </mxCell>
        <mxCell id="koypFPOMvJZ9m-VjRx7N-97" value="ProductName" style="ellipse;whiteSpace=wrap;html=1;fillColor=#33FF99;" vertex="1" parent="1">
          <mxGeometry x="-830" y="570" width="120" height="80" as="geometry" />
        </mxCell>
        <mxCell id="koypFPOMvJZ9m-VjRx7N-98" value="Quantity" style="ellipse;whiteSpace=wrap;html=1;fillColor=#33FF99;" vertex="1" parent="1">
          <mxGeometry x="-820" y="670" width="120" height="80" as="geometry" />
        </mxCell>
        <mxCell id="koypFPOMvJZ9m-VjRx7N-99" value="UnitPrice" style="ellipse;whiteSpace=wrap;html=1;fillColor=#33FF99;" vertex="1" parent="1">
          <mxGeometry x="-830" y="470" width="120" height="80" as="geometry" />
        </mxCell>
        <mxCell id="koypFPOMvJZ9m-VjRx7N-128" style="edgeStyle=orthogonalEdgeStyle;rounded=0;orthogonalLoop=1;jettySize=auto;html=1;exitX=1;exitY=0;exitDx=0;exitDy=0;entryX=0;entryY=0.5;entryDx=0;entryDy=0;" edge="1" parent="1" source="koypFPOMvJZ9m-VjRx7N-111" target="koypFPOMvJZ9m-VjRx7N-112">
          <mxGeometry relative="1" as="geometry" />
        </mxCell>
        <mxCell id="koypFPOMvJZ9m-VjRx7N-129" style="edgeStyle=orthogonalEdgeStyle;rounded=0;orthogonalLoop=1;jettySize=auto;html=1;exitX=1;exitY=0.25;exitDx=0;exitDy=0;entryX=0;entryY=0.5;entryDx=0;entryDy=0;" edge="1" parent="1" source="koypFPOMvJZ9m-VjRx7N-111" target="koypFPOMvJZ9m-VjRx7N-113">
          <mxGeometry relative="1" as="geometry" />
        </mxCell>
        <mxCell id="koypFPOMvJZ9m-VjRx7N-130" style="edgeStyle=orthogonalEdgeStyle;rounded=0;orthogonalLoop=1;jettySize=auto;html=1;exitX=1;exitY=0.5;exitDx=0;exitDy=0;entryX=0;entryY=0.5;entryDx=0;entryDy=0;" edge="1" parent="1" source="koypFPOMvJZ9m-VjRx7N-111" target="koypFPOMvJZ9m-VjRx7N-114">
          <mxGeometry relative="1" as="geometry" />
        </mxCell>
        <mxCell id="koypFPOMvJZ9m-VjRx7N-131" style="edgeStyle=orthogonalEdgeStyle;rounded=0;orthogonalLoop=1;jettySize=auto;html=1;exitX=1;exitY=0.75;exitDx=0;exitDy=0;entryX=0;entryY=0.5;entryDx=0;entryDy=0;" edge="1" parent="1" source="koypFPOMvJZ9m-VjRx7N-111" target="koypFPOMvJZ9m-VjRx7N-115">
          <mxGeometry relative="1" as="geometry" />
        </mxCell>
        <mxCell id="koypFPOMvJZ9m-VjRx7N-111" value="Sellers" style="html=1;overflow=block;blockSpacing=1;whiteSpace=wrap;fontSize=16.7;spacing=9;rounded=1;absoluteArcSize=1;arcSize=9;strokeWidth=NaN;lucidId=O1WxEMNs407I;fillColor=#66B2FF;" vertex="1" parent="1">
          <mxGeometry x="500" y="186.5" width="120" height="90" as="geometry" />
        </mxCell>
        <mxCell id="koypFPOMvJZ9m-VjRx7N-112" value="&lt;u&gt;SellerID&lt;/u&gt;" style="ellipse;whiteSpace=wrap;html=1;fillColor=#66B2FF;" vertex="1" parent="1">
          <mxGeometry x="660" y="35.5" width="100" height="73" as="geometry" />
        </mxCell>
        <mxCell id="koypFPOMvJZ9m-VjRx7N-113" value="Username" style="ellipse;whiteSpace=wrap;html=1;fillColor=#66B2FF;" vertex="1" parent="1">
          <mxGeometry x="668" y="123.5" width="92" height="70" as="geometry" />
        </mxCell>
        <mxCell id="koypFPOMvJZ9m-VjRx7N-115" value="Shopname" style="ellipse;whiteSpace=wrap;html=1;fillColor=#66B2FF;" vertex="1" parent="1">
          <mxGeometry x="671" y="288.5" width="100" height="75" as="geometry" />
        </mxCell>
        <mxCell id="koypFPOMvJZ9m-VjRx7N-116" value="BusinessLicense" style="ellipse;whiteSpace=wrap;html=1;fillColor=#66B2FF;" vertex="1" parent="1">
          <mxGeometry x="679" y="378.5" width="92" height="78" as="geometry" />
        </mxCell>
        <mxCell id="koypFPOMvJZ9m-VjRx7N-114" value="Password" style="ellipse;whiteSpace=wrap;html=1;fillColor=#66B2FF;" vertex="1" parent="1">
          <mxGeometry x="674" y="194" width="94" height="75" as="geometry" />
        </mxCell>
        <mxCell id="koypFPOMvJZ9m-VjRx7N-132" style="edgeStyle=orthogonalEdgeStyle;rounded=0;orthogonalLoop=1;jettySize=auto;html=1;exitX=1;exitY=1;exitDx=0;exitDy=0;entryX=0.011;entryY=0.615;entryDx=0;entryDy=0;entryPerimeter=0;" edge="1" parent="1" source="koypFPOMvJZ9m-VjRx7N-111" target="koypFPOMvJZ9m-VjRx7N-116">
          <mxGeometry relative="1" as="geometry" />
        </mxCell>
        <mxCell id="koypFPOMvJZ9m-VjRx7N-142" style="edgeStyle=orthogonalEdgeStyle;rounded=0;orthogonalLoop=1;jettySize=auto;html=1;exitX=0.25;exitY=1;exitDx=0;exitDy=0;entryX=0.5;entryY=0;entryDx=0;entryDy=0;" edge="1" parent="1" source="koypFPOMvJZ9m-VjRx7N-133" target="koypFPOMvJZ9m-VjRx7N-139">
          <mxGeometry relative="1" as="geometry" />
        </mxCell>
        <mxCell id="koypFPOMvJZ9m-VjRx7N-143" style="edgeStyle=orthogonalEdgeStyle;rounded=0;orthogonalLoop=1;jettySize=auto;html=1;exitX=0;exitY=1;exitDx=0;exitDy=0;entryX=0.5;entryY=0;entryDx=0;entryDy=0;" edge="1" parent="1" source="koypFPOMvJZ9m-VjRx7N-133" target="koypFPOMvJZ9m-VjRx7N-141">
          <mxGeometry relative="1" as="geometry" />
        </mxCell>
        <mxCell id="koypFPOMvJZ9m-VjRx7N-144" style="edgeStyle=orthogonalEdgeStyle;rounded=0;orthogonalLoop=1;jettySize=auto;html=1;exitX=0.75;exitY=1;exitDx=0;exitDy=0;" edge="1" parent="1" source="koypFPOMvJZ9m-VjRx7N-133" target="koypFPOMvJZ9m-VjRx7N-137">
          <mxGeometry relative="1" as="geometry" />
        </mxCell>
        <mxCell id="koypFPOMvJZ9m-VjRx7N-145" style="edgeStyle=orthogonalEdgeStyle;rounded=0;orthogonalLoop=1;jettySize=auto;html=1;exitX=1;exitY=1;exitDx=0;exitDy=0;" edge="1" parent="1" source="koypFPOMvJZ9m-VjRx7N-133" target="koypFPOMvJZ9m-VjRx7N-135">
          <mxGeometry relative="1" as="geometry" />
        </mxCell>
        <mxCell id="koypFPOMvJZ9m-VjRx7N-133" value="Discount" style="html=1;overflow=block;blockSpacing=1;whiteSpace=wrap;fontSize=16.7;spacing=9;rounded=1;absoluteArcSize=1;arcSize=9;strokeWidth=NaN;lucidId=O1WxFS6N8Owv;fillColor=#FF66FF;" vertex="1" parent="1">
          <mxGeometry x="763" y="740" width="120" height="90" as="geometry" />
        </mxCell>
        <mxCell id="koypFPOMvJZ9m-VjRx7N-135" value="&lt;u&gt;DiscountID&lt;/u&gt;" style="ellipse;whiteSpace=wrap;html=1;fillColor=#FF66FF;" vertex="1" parent="1">
          <mxGeometry x="973" y="871.5" width="90" height="70" as="geometry" />
        </mxCell>
        <mxCell id="koypFPOMvJZ9m-VjRx7N-137" value="DiscountPercent" style="ellipse;whiteSpace=wrap;html=1;fillColor=#FF66FF;" vertex="1" parent="1">
          <mxGeometry x="835" y="891.5" width="90" height="70" as="geometry" />
        </mxCell>
        <mxCell id="koypFPOMvJZ9m-VjRx7N-139" value="StartDate" style="ellipse;whiteSpace=wrap;html=1;fillColor=#FF66FF;" vertex="1" parent="1">
          <mxGeometry x="735" y="891.5" width="90" height="70" as="geometry" />
        </mxCell>
        <mxCell id="koypFPOMvJZ9m-VjRx7N-141" value="EndDate" style="ellipse;whiteSpace=wrap;html=1;fillColor=#FF66FF;" vertex="1" parent="1">
          <mxGeometry x="623" y="871.5" width="90" height="70" as="geometry" />
        </mxCell>
        <mxCell id="koypFPOMvJZ9m-VjRx7N-159" style="edgeStyle=orthogonalEdgeStyle;rounded=0;orthogonalLoop=1;jettySize=auto;html=1;exitX=1;exitY=0;exitDx=0;exitDy=0;entryX=0;entryY=0.5;entryDx=0;entryDy=0;" edge="1" parent="1" source="koypFPOMvJZ9m-VjRx7N-146" target="koypFPOMvJZ9m-VjRx7N-158">
          <mxGeometry relative="1" as="geometry" />
        </mxCell>
        <mxCell id="koypFPOMvJZ9m-VjRx7N-160" style="edgeStyle=orthogonalEdgeStyle;rounded=0;orthogonalLoop=1;jettySize=auto;html=1;exitX=1;exitY=0.25;exitDx=0;exitDy=0;entryX=0;entryY=0.5;entryDx=0;entryDy=0;" edge="1" parent="1" source="koypFPOMvJZ9m-VjRx7N-146" target="koypFPOMvJZ9m-VjRx7N-153">
          <mxGeometry relative="1" as="geometry" />
        </mxCell>
        <mxCell id="koypFPOMvJZ9m-VjRx7N-161" style="edgeStyle=orthogonalEdgeStyle;rounded=0;orthogonalLoop=1;jettySize=auto;html=1;exitX=1;exitY=0.5;exitDx=0;exitDy=0;entryX=0;entryY=0.5;entryDx=0;entryDy=0;" edge="1" parent="1" source="koypFPOMvJZ9m-VjRx7N-146" target="koypFPOMvJZ9m-VjRx7N-155">
          <mxGeometry relative="1" as="geometry" />
        </mxCell>
        <mxCell id="koypFPOMvJZ9m-VjRx7N-162" style="edgeStyle=orthogonalEdgeStyle;rounded=0;orthogonalLoop=1;jettySize=auto;html=1;exitX=1;exitY=0.75;exitDx=0;exitDy=0;entryX=0;entryY=0.5;entryDx=0;entryDy=0;" edge="1" parent="1" source="koypFPOMvJZ9m-VjRx7N-146" target="koypFPOMvJZ9m-VjRx7N-157">
          <mxGeometry relative="1" as="geometry" />
        </mxCell>
        <mxCell id="koypFPOMvJZ9m-VjRx7N-146" value="Admin" style="html=1;overflow=block;blockSpacing=1;whiteSpace=wrap;fontSize=16.7;spacing=9;rounded=1;absoluteArcSize=1;arcSize=9;strokeWidth=NaN;lucidId=O1WxjDPdvXiL;fillColor=#FF66B3;" vertex="1" parent="1">
          <mxGeometry x="850" y="190" width="120" height="90" as="geometry" />
        </mxCell>
        <mxCell id="koypFPOMvJZ9m-VjRx7N-153" value="AdminFname" style="ellipse;whiteSpace=wrap;html=1;fillColor=#FF66B3;" vertex="1" parent="1">
          <mxGeometry x="1032" y="140" width="110" height="70" as="geometry" />
        </mxCell>
        <mxCell id="koypFPOMvJZ9m-VjRx7N-155" value="AdminLname" style="ellipse;whiteSpace=wrap;html=1;fillColor=#FF66B3;" vertex="1" parent="1">
          <mxGeometry x="1039" y="230" width="100" height="70" as="geometry" />
        </mxCell>
        <mxCell id="koypFPOMvJZ9m-VjRx7N-157" value="AdminPassword" style="ellipse;whiteSpace=wrap;html=1;fillColor=#FF66B3;" vertex="1" parent="1">
          <mxGeometry x="1032" y="330" width="110" height="70" as="geometry" />
        </mxCell>
        <mxCell id="koypFPOMvJZ9m-VjRx7N-158" value="&lt;u&gt;AdminID&lt;/u&gt;" style="ellipse;whiteSpace=wrap;html=1;fontSize=12;fillColor=#FF66B3;" vertex="1" parent="1">
          <mxGeometry x="1032" y="50" width="110" height="70" as="geometry" />
        </mxCell>
        <mxCell id="koypFPOMvJZ9m-VjRx7N-171" style="edgeStyle=orthogonalEdgeStyle;rounded=0;orthogonalLoop=1;jettySize=auto;html=1;exitX=0.5;exitY=1;exitDx=0;exitDy=0;" edge="1" parent="1" source="koypFPOMvJZ9m-VjRx7N-163" target="koypFPOMvJZ9m-VjRx7N-166">
          <mxGeometry relative="1" as="geometry" />
        </mxCell>
        <mxCell id="koypFPOMvJZ9m-VjRx7N-172" style="edgeStyle=orthogonalEdgeStyle;rounded=0;orthogonalLoop=1;jettySize=auto;html=1;exitX=0.25;exitY=1;exitDx=0;exitDy=0;entryX=0.5;entryY=0;entryDx=0;entryDy=0;" edge="1" parent="1" source="koypFPOMvJZ9m-VjRx7N-163" target="koypFPOMvJZ9m-VjRx7N-170">
          <mxGeometry relative="1" as="geometry" />
        </mxCell>
        <mxCell id="koypFPOMvJZ9m-VjRx7N-173" style="edgeStyle=orthogonalEdgeStyle;rounded=0;orthogonalLoop=1;jettySize=auto;html=1;exitX=0.75;exitY=1;exitDx=0;exitDy=0;" edge="1" parent="1" source="koypFPOMvJZ9m-VjRx7N-163" target="koypFPOMvJZ9m-VjRx7N-168">
          <mxGeometry relative="1" as="geometry" />
        </mxCell>
        <mxCell id="koypFPOMvJZ9m-VjRx7N-163" value="Category" style="html=1;overflow=block;blockSpacing=1;whiteSpace=wrap;fontSize=20;spacing=9;rounded=1;absoluteArcSize=1;arcSize=9;strokeWidth=NaN;lucidId=O1WxHwZG4rg.;fillColor=#B3FF66;" vertex="1" parent="1">
          <mxGeometry x="130" y="850" width="120" height="90" as="geometry" />
        </mxCell>
        <mxCell id="koypFPOMvJZ9m-VjRx7N-166" value="&lt;u&gt;CategoryID&lt;/u&gt;" style="ellipse;whiteSpace=wrap;html=1;fontSize=12;fillColor=#B3FF66;" vertex="1" parent="1">
          <mxGeometry x="135" y="1010" width="110" height="70" as="geometry" />
        </mxCell>
        <mxCell id="koypFPOMvJZ9m-VjRx7N-168" value="CategoryName" style="ellipse;whiteSpace=wrap;html=1;fontSize=12;fillColor=#B3FF66;" vertex="1" parent="1">
          <mxGeometry x="250" y="980" width="110" height="70" as="geometry" />
        </mxCell>
        <mxCell id="koypFPOMvJZ9m-VjRx7N-170" value="Description" style="ellipse;whiteSpace=wrap;html=1;fontSize=12;fillColor=#B3FF66;" vertex="1" parent="1">
          <mxGeometry x="32.44" y="980" width="110" height="70" as="geometry" />
        </mxCell>
      </root>
    </mxGraphModel>
  </diagram>
</mxfile>
